<?xml version="1.0" encoding="UTF-8"?>
<svg id="Capa_1" data-name="Capa 1" xmlns="http://www.w3.org/2000/svg" viewBox="0 0 259.67 40">
  <defs>
    <style>
      .cls-1 {
        fill: #1c1c1c;
      }
    </style>
  </defs>
  <path class="cls-1" d="M13.5,20.75l-3.99-.73c-1.28-.23-2.18-.63-2.7-1.19-.52-.56-.79-1.2-.79-1.92,0-.87.25-1.55.75-2.03.5-.49,1.11-.83,1.84-1.04.73-.2,1.41-.31,2.05-.31.69,0,1.38.11,2.07.35.69.23,1.29.65,1.8,1.25.51.6.86,1.48,1.04,2.63h4.99c-.18-2.05-.72-3.71-1.63-5-.91-1.29-2.08-2.24-3.53-2.86-1.44-.61-3.07-.92-4.89-.92s-3.32.32-4.76.96c-1.43.64-2.57,1.55-3.41,2.74-.84,1.19-1.27,2.63-1.27,4.31,0,1.87.63,3.48,1.88,4.85,1.25,1.37,3.02,2.27,5.29,2.7l4.33.81c1.41.26,2.31.68,2.72,1.27.41.59.61,1.25.61,1.99,0,.67-.21,1.27-.63,1.8-.42.54-1,.96-1.73,1.27s-1.57.46-2.51.46c-.82,0-1.66-.14-2.53-.42-.87-.28-1.63-.77-2.28-1.48-.65-.7-1.09-1.71-1.32-3.01H0c.15,1.71.58,3.18,1.27,4.39.69,1.21,1.55,2.2,2.59,2.95,1.04.76,2.17,1.3,3.39,1.65,1.23.35,2.45.52,3.68.52s2.43-.19,3.6-.56c1.18-.37,2.24-.91,3.2-1.61.96-.7,1.73-1.57,2.3-2.59.58-1.02.86-2.2.86-3.53,0-2.35-.66-4.12-1.99-5.31-1.33-1.19-3.13-1.99-5.41-2.4Z"/>
  <rect class="cls-1" x="24.16" y="9.43" width="5.37" height="26.85"/>
  <polygon class="cls-1" points="50.66 27.65 38.5 9.43 33.14 9.43 33.14 36.28 38.5 36.28 38.5 18.14 50.66 36.28 56.03 36.28 56.03 9.43 50.66 9.43 50.66 27.65"/>
  <polygon class="cls-1" points="77.16 27.65 65 9.43 59.64 9.43 59.64 36.28 65 36.28 65 18.14 77.16 36.28 82.53 36.28 82.53 9.43 77.16 9.43 77.16 27.65"/>
  <polygon class="cls-1" points="86.14 36.28 103.89 36.28 103.89 31.95 91.51 31.95 91.51 24.74 102.74 24.74 102.74 20.56 91.51 20.56 91.51 13.77 103.89 13.77 103.89 9.43 86.14 9.43 86.14 36.28"/>
  <path class="cls-1" d="M127.11,26.42c-.52-1.05-1.27-1.9-2.24-2.57.89-.74,1.61-1.63,2.15-2.67.54-1.04.81-2.17.81-3.39,0-1.59-.35-3.01-1.05-4.28-.7-1.27-1.76-2.26-3.18-2.99-1.42-.73-3.22-1.09-5.39-1.09h-11.39v26.85h5.37v-10.16h6.06c1.05,0,1.88.14,2.49.42.61.28,1.07.71,1.36,1.28.29.58.47,1.31.52,2.21l.42,6.25h5.25l-.31-6.25c-.05-1.36-.34-2.56-.86-3.6ZM121.3,20.71c-.72.72-1.87,1.07-3.45,1.07h-5.68v-7.98h5.68c1.58,0,2.74.35,3.45,1.05.72.7,1.07,1.68,1.07,2.93s-.36,2.2-1.07,2.91Z"/>
  <path class="cls-1" d="M143.97,20.75l-3.99-.73c-1.28-.23-2.18-.63-2.7-1.19-.52-.56-.79-1.2-.79-1.92,0-.87.25-1.55.75-2.03.5-.49,1.11-.83,1.84-1.04.73-.2,1.41-.31,2.05-.31.69,0,1.38.11,2.07.35s1.29.65,1.8,1.25c.51.6.85,1.48,1.03,2.63h4.99c-.18-2.05-.72-3.71-1.63-5-.91-1.29-2.08-2.24-3.53-2.86s-3.08-.92-4.89-.92-3.32.32-4.76.96c-1.43.64-2.57,1.55-3.41,2.74-.84,1.19-1.26,2.63-1.26,4.31,0,1.87.63,3.48,1.88,4.85,1.25,1.37,3.02,2.27,5.29,2.7l4.33.81c1.41.26,2.31.68,2.72,1.27.41.59.61,1.25.61,1.99,0,.67-.21,1.27-.63,1.8-.42.54-1,.96-1.73,1.27s-1.57.46-2.51.46c-.82,0-1.66-.14-2.53-.42-.87-.28-1.63-.77-2.28-1.48-.65-.7-1.09-1.71-1.32-3.01h-4.91c.15,1.71.58,3.18,1.27,4.39.69,1.21,1.55,2.2,2.59,2.95,1.04.76,2.17,1.3,3.39,1.65s2.45.52,3.68.52,2.43-.19,3.61-.56c1.18-.37,2.24-.91,3.2-1.61.96-.7,1.73-1.57,2.3-2.59.57-1.02.86-2.2.86-3.53,0-2.35-.66-4.12-1.99-5.31-1.33-1.19-3.13-1.99-5.41-2.4Z"/>
  <polygon class="cls-1" points="153.82 40 157.2 40 169.86 6.9 166.44 6.9 153.82 40"/>
  <path class="cls-1" d="M188.07,32.25c-1.25.95-2.94,1.42-5.06,1.42-1.87,0-3.5-.43-4.89-1.29-1.39-.86-2.47-2.1-3.24-3.72-.77-1.62-1.15-3.56-1.15-5.81s.38-4.18,1.15-5.79c.77-1.61,1.85-2.85,3.24-3.72,1.39-.87,3.02-1.3,4.89-1.3,2.12,0,3.8.49,5.04,1.48,1.24.98,2.05,2.3,2.44,3.93h3.84c-.54-2.68-1.77-4.77-3.7-6.25-1.93-1.48-4.45-2.22-7.57-2.22-2.63,0-4.91.58-6.83,1.75s-3.4,2.79-4.45,4.89c-1.05,2.1-1.57,4.51-1.57,7.25s.52,5.18,1.57,7.27c1.05,2.08,2.53,3.71,4.45,4.87,1.92,1.16,4.19,1.75,6.83,1.75,3.12,0,5.65-.74,7.59-2.22s3.2-3.61,3.76-6.37h-3.8c-.43,1.79-1.28,3.16-2.53,4.1Z"/>
  <path class="cls-1" d="M205.79,9.43l-9.89,26.85h3.64l2.44-6.83h11.29l2.44,6.83h3.64l-9.9-26.85h-3.68ZM202.97,26.69l4.66-13.01,4.66,13.01h-9.32Z"/>
  <polygon class="cls-1" points="223.2 36.28 226.65 36.28 226.65 24.2 237.66 24.2 237.66 21.44 226.65 21.44 226.65 12.27 239.69 12.27 239.69 9.43 223.2 9.43 223.2 36.28"/>
  <polygon class="cls-1" points="258.37 0 254.8 0 251.16 7.1 253.73 7.1 258.37 0"/>
  <polygon class="cls-1" points="259.67 12.27 259.67 9.43 242.95 9.43 242.95 36.28 259.67 36.28 259.67 33.44 246.4 33.44 246.4 24.12 258.52 24.12 258.52 21.36 246.4 21.36 246.4 12.27 259.67 12.27"/>
</svg>